# xmcd
#
# Track frame offsets:
#	150
#	14170
#	32967
#	51597
#	66221
#	90627
#	109884
#	127380
#	141965
#	163583
#	181802
#	196867
#	212257
#	230264
#	247466
#	267119
#	289962
#	304067
#	316826
#	329659
#	344855
#
# Disc length: 4795 seconds
#
# Revision: 1
# Processed by: cddbd v1.5.2PL0 Copyright (c) Steve Scherf et al.
# Submitted via: audiograbber 1.83.01
#
DISCID=5412b915
DTITLE=John Smith - John Smith
DYEAR=1900
DGENRE=Country
TTITLE0=While The Big City Sleeps
TTITLE1=Rommel
TTITLE2=My Dog Nui Dat
TTITLE3=Trumby's Ghost
TTITLE4=Little Emma
TTITLE5=Old Axe Man
TTITLE6=Something In The Pillega
TTITLE7=Nothing Short Of Magic
TTITLE8=Fields Of Athenry
TTITLE9=The Diplomat
TTITLE10=Three Wooden Crosses
TTITLE11=If We Never Meet Again
TTITLE12=The Whole Town Is Scared Of Me
TTITLE13=Just A Little Girthy
TTITLE14=One Lifetime Is Not Enough
TTITLE15=Harry Bowden Derelict
TTITLE16=Old Timber Men
TTITLE17=The Only Home He Knows
TTITLE18=Staring Out The Window
TTITLE19=Come Back To The Bush
TTITLE20=Do You Think I Don't Know
EXTD=
EXTT0=
EXTT1=
EXTT2=
EXTT3=
EXTT4=
EXTT5=
EXTT6=
EXTT7=
EXTT8=
EXTT9=
EXTT10=
EXTT11=
EXTT12=
EXTT13=
EXTT14=
EXTT15=
EXTT16=
EXTT17=
EXTT18=
EXTT19=
EXTT20=
PLAYORDER=
